<?xml version="1.0" standalone="no"?>
<!DOCTYPE svg PUBLIC "-//W3C//DTD SVG 1.1//EN" "http://www.w3.org/Graphics/SVG/1.1/DTD/svg11.dtd" >
<svg xmlns="http://www.w3.org/2000/svg" xmlns:xlink="http://www.w3.org/1999/xlink" version="1.1">
<metadata>
Created by FontForge 20160407 at Mon Jun  6 12:12:04 2016
 By Jimmy Wärting
Copyright (c) 2010 by . All rights reserved.
</metadata>
<defs>
<font id="Acid" horiz-adv-x="405" >
  <font-face 
    font-family="Acid"
    font-weight="400"
    font-stretch="normal"
    units-per-em="1000"
    panose-1="0 0 0 0 0 0 0 0 0 0"
    ascent="750"
    descent="-250"
    x-height="375"
    cap-height="561"
    bbox="5 -192 620.114 662"
    underline-thickness="50"
    underline-position="-100"
    unicode-range="U+0020-00FC"
  />
<missing-glyph horiz-adv-x="238" 
 />
    <glyph glyph-name=".notdef" horiz-adv-x="238" 
 />
    <glyph glyph-name="w" unicode="w" horiz-adv-x="499" 
d="M428 380h36l-98 -378h-35l-82 307l-82 -307h-35l-97 378h36l79 -307l82 307h34l82 -307z" />
    <glyph glyph-name="m" unicode="m" horiz-adv-x="538" 
d="M488 271v-270h-35v270c0 45 -43 69 -73 69h-5c-25 0 -51 -14 -64 -35c-7 -10 -10 -21 -10 -34v-270h-35v270c0 45 -43 69 -73 69h-5c-30 0 -72 -23 -74 -66v-273h-35v320c0 8 -15 21 -29 33l23 27c14 -13 28 -24 36 -39l6 6c21 17 47 27 73 27h5c25 0 52 -10 72 -27
c7 -7 13 -13 18 -21c10 14 23 26 40 35c16 8 34 13 52 13h5c25 0 52 -10 72 -27c23 -20 36 -47 36 -77z" />
    <glyph glyph-name="v" unicode="v" horiz-adv-x="310" 
d="M268 380h37l-132 -378h-36l-132 378h37l113 -323z" />
    <glyph glyph-name="k" unicode="k" horiz-adv-x="355" 
d="M95 170v-167h-35v550h35v-348h51l128 188l29 -20l-115 -169c20 -3 38 -15 50 -32v-2l92 -168h-40l-82 151c-7 10 -19 17 -31 17h-82z" />
    <glyph glyph-name="h" unicode="h" horiz-adv-x="358" 
d="M85 264v-261h-35v560h35v-224c2 2 5 5 8 7c23 19 54 30 83 30h6c30 0 60 -11 84 -30c27 -22 42 -53 42 -86v-257h-35v257c0 53 -53 81 -91 81h-6c-37 0 -89 -27 -91 -77z" />
    <glyph glyph-name="r" unicode="r" horiz-adv-x="277" 
d="M115 1h-35v320c0 8 -15 21 -30 33l23 27c19 -17 38 -33 41 -55c14 11 36 27 50 37c2 1 42 27 88 -7l-21 -29c-11 9 -23 12 -35 11c-7 -1 -12 -4 -12 -4c-14 -9 -36 -25 -49 -36l-20 -16v-281z" />
    <glyph glyph-name="n" unicode="n" horiz-adv-x="380" 
d="M330 262v-261h-35v261c0 51 -51 78 -88 78h-5c-36 0 -86 -26 -88 -74v-265h-35v320c0 8 -15 21 -29 33l23 27c16 -14 31 -27 38 -44c3 3 5 6 9 9c23 18 53 29 82 29h5c29 0 59 -11 82 -29c27 -22 41 -51 41 -84z" />
    <glyph glyph-name="y" unicode="y" horiz-adv-x="351" 
d="M178 2h-6c-29 0 -58 11 -81 29c-27 22 -41 51 -41 84v265h35v-265c0 -51 51 -78 87 -78h6c36 0 85 25 88 74v269h35v-471c0 -38 -19 -57 -32 -70c-19 -20 -29 -30 -29 -31l-25 25s10 10 29 30c11 11 22 22 22 46v127c-2 -2 -4 -3 -6 -5c-23 -18 -53 -29 -82 -29z" />
    <glyph glyph-name="a" unicode="a" horiz-adv-x="380" 
d="M166 6h-23c-28 0 -53 11 -73 30c-19 19 -30 45 -29 72v34c0 57 46 103 103 103h27c25 0 49 -4 68 -11c5 -2 9 -4 14 -7v31c0 28 -10 52 -28 67c-15 12 -33 18 -53 15l-100 -14l-5 34l100 15c30 4 59 -4 81 -24c25 -22 40 -55 40 -93v-185c0 -9 23 -25 42 -37l-19 -29
c-17 10 -33 20 -43 31c-20 -21 -63 -32 -102 -32zM171 210h-27c-38 0 -68 -31 -68 -68v-34c-1 -18 6 -35 19 -47c13 -13 30 -20 48 -20h23c20 0 41 3 57 10c14 5 20 12 21 14l9 33v61l-7 30c-2 6 -29 21 -75 21z" />
    <glyph glyph-name="b" unicode="b" 
d="M222 6h-18c-28 0 -56 10 -80 28c-6 4 -11 8 -15 13c-8 -15 -22 -27 -37 -39l-22 27c14 12 29 24 29 33v485h35v-215c3 3 6 6 10 9c24 18 52 28 80 28h18c29 0 57 -10 81 -28c23 -19 39 -43 45 -70c9 -48 9 -126 0 -174c-6 -26 -22 -51 -45 -69c-24 -18 -52 -28 -81 -28z
M204 41h18c42 0 84 31 91 69c9 44 9 117 0 160c-7 38 -49 70 -91 70h-18c-41 0 -80 -30 -90 -66v-169c10 -36 49 -64 90 -64z" />
    <glyph glyph-name="d" unicode="d" 
d="M183 6c-29 0 -57 10 -81 28c-23 18 -39 43 -45 69c-9 48 -9 126 0 174c6 27 22 51 45 70c24 18 52 28 81 28h18c28 0 56 -10 80 -28c3 -3 7 -6 10 -9v215h35v-485c0 -9 15 -21 29 -33l-22 -27c-15 12 -30 24 -37 39c-5 -5 -10 -9 -15 -13c-24 -18 -52 -28 -80 -28h-18z
M201 41c40 0 80 28 90 64v169c-10 36 -50 66 -90 66h-18c-42 0 -84 -32 -91 -70c-9 -43 -9 -116 0 -160c7 -38 49 -69 91 -69h18z" />
    <glyph glyph-name="p" unicode="p" 
d="M222 369c29 0 57 -10 81 -28c23 -18 39 -43 45 -69c9 -48 9 -126 0 -174c-6 -27 -22 -51 -45 -70c-24 -18 -52 -28 -81 -28h-18c-28 0 -56 10 -80 28c-4 2 -7 5 -10 8v-214h-35v485c0 9 -15 21 -29 33l22 27c15 -13 29 -25 37 -39c4 4 9 9 15 13c24 18 52 28 80 28h18z
M204 334c-41 0 -80 -29 -90 -65v-169c10 -36 49 -65 90 -65h18c42 0 84 32 91 70c9 43 9 116 0 160c-7 38 -49 69 -91 69h-18z" />
    <glyph glyph-name="q" unicode="q" 
d="M183 369h18c28 0 56 -10 80 -28c5 -4 10 -9 15 -13c7 14 22 26 37 39l22 -27c-14 -12 -29 -24 -29 -33v-485h-35v214c-3 -3 -7 -6 -10 -8c-24 -18 -52 -28 -80 -28h-18c-29 0 -57 10 -81 28c-23 19 -39 43 -45 70c-9 48 -9 126 0 174c6 26 22 51 45 69c24 18 52 28 81 28
zM201 334h-18c-42 0 -84 -31 -91 -69c-9 -44 -9 -117 0 -160c7 -38 49 -70 91 -70h18c40 0 80 29 90 65v169c-10 36 -50 65 -90 65z" />
    <glyph glyph-name="c" unicode="c" horiz-adv-x="376" 
d="M201 4h-18c-29 0 -57 10 -81 28c-24 19 -40 43 -45 70c-9 48 -9 126 0 175c5 26 21 51 45 69c24 19 52 29 81 29h18c28 0 57 -10 80 -29c24 -18 40 -43 45 -69l-34 -7c-7 38 -49 70 -91 70h-18c-42 0 -84 -32 -92 -70c-8 -44 -8 -118 0 -161c8 -38 50 -70 92 -70h18
c42 0 84 32 91 70l34 -7c-5 -27 -21 -51 -45 -70c-23 -18 -52 -28 -80 -28z" />
    <glyph glyph-name="e" unicode="e" horiz-adv-x="384" 
d="M201 4h-18c-28 0 -57 10 -81 28c-23 19 -39 43 -45 70c-9 48 -9 126 0 175c6 26 22 51 45 69c24 19 53 29 81 29h18c29 0 57 -10 81 -29c24 -18 40 -43 45 -69c4 -21 6 -48 7 -77v-16l-248 -20c1 -21 3 -40 6 -55c7 -38 49 -70 91 -70h18c42 0 84 32 91 70l35 -7
c-5 -27 -21 -51 -45 -70c-24 -18 -52 -28 -81 -28zM201 340h-18c-42 0 -84 -32 -91 -70c-4 -20 -6 -45 -7 -71l213 17c-1 20 -3 39 -6 54c-7 38 -49 70 -91 70z" />
    <glyph glyph-name="u" unicode="u" horiz-adv-x="351" 
d="M178 4h-6c-29 0 -58 11 -81 29c-27 21 -41 51 -41 84v260h35v-260c0 -51 51 -78 87 -78h6c37 0 88 27 88 78v260h35v-260c0 -33 -15 -63 -41 -84c-23 -18 -53 -29 -82 -29z" />
    <glyph glyph-name="g" unicode="g" horiz-adv-x="354" 
d="M201 6h-18c-28 0 -57 10 -80 29c-24 18 -40 43 -45 69c-10 48 -10 127 0 175c5 26 21 51 45 70c23 18 52 28 80 28h18c24 0 47 -8 68 -20v21h35v-469c0 -38 -19 -57 -32 -70c-19 -20 -29 -30 -29 -31l-25 25s10 10 29 30c11 11 22 22 22 46v117c-21 -13 -44 -20 -68 -20z
M201 342h-18c-42 0 -84 -32 -91 -70c-9 -44 -9 -117 0 -161c7 -38 49 -70 91 -70h18c24 0 50 11 68 28v244c-18 18 -44 29 -68 29z" />
    <glyph glyph-name="f" unicode="f" horiz-adv-x="258" 
d="M182 345v-35h-72v-307h-35v409c0 33 10 66 27 91c18 27 42 44 69 46l79 6l3 -35l-79 -6c-35 -3 -64 -50 -64 -102v-67h72z" />
    <glyph glyph-name="o" unicode="o" horiz-adv-x="384" 
d="M201 4h-18c-28 0 -57 10 -81 28c-23 19 -39 43 -45 70c-9 48 -9 127 0 175c6 26 22 51 45 70c24 18 53 28 81 28h18c29 0 57 -10 81 -28c24 -19 40 -44 45 -70c9 -48 9 -127 0 -175c-5 -27 -21 -51 -45 -70c-24 -18 -52 -28 -81 -28zM201 340h-18c-42 0 -84 -32 -91 -70
c-9 -44 -9 -118 0 -161c7 -38 49 -70 91 -70h18c42 0 84 32 92 70c8 43 8 117 0 161c-8 38 -50 70 -92 70z" />
    <glyph glyph-name="s" unicode="s" horiz-adv-x="297" 
d="M149 6c-68 0 -101 42 -109 78l34 8c2 -9 14 -51 75 -51c31 0 50 15 60 27c16 19 17 49 3 66c-8 10 -42 34 -70 53c-40 28 -65 46 -74 58c-27 36 -15 77 9 103c22 22 46 27 78 27c21 0 43 -8 61 -22s30 -33 34 -54l-34 -6c-5 25 -33 47 -61 47s-40 -4 -52 -17
c-3 -3 -28 -30 -7 -57c6 -8 41 -33 66 -51c41 -28 66 -46 77 -59c12 -14 18 -34 17 -55c0 -20 -7 -40 -20 -55c-21 -26 -52 -40 -87 -40z" />
    <glyph glyph-name="z" unicode="z" horiz-adv-x="366" 
d="M50 -1v22l216 321h-218v35h270v-19l-217 -324h218v-35h-269z" />
    <glyph glyph-name="l" unicode="l" horiz-adv-x="184" 
d="M60 48v505h35v-506c0 -9 15 -20 29 -32l-22 -27c-22 18 -42 35 -42 60z" />
    <glyph glyph-name="t" unicode="t" horiz-adv-x="218" 
d="M173 345v-35h-64v-262c0 -9 14 -21 29 -33l-23 -27c-21 18 -41 35 -41 60v262h-34v35h34v208h35v-208h64z" />
    <glyph glyph-name="i" unicode="i" horiz-adv-x="185" 
d="M110 380v-377h-35v377h35zM110 517v-59h-35v59h35z" />
    <glyph glyph-name="j" unicode="j" horiz-adv-x="176" 
d="M40 -180l-25 25s11 10 29 30c11 11 22 22 22 46v459h35v-459c0 -38 -19 -58 -31 -71c-19 -20 -30 -30 -30 -30zM101 517v-60h-35v60h35z" />
    <glyph glyph-name="space" unicode=" " horiz-adv-x="238" 
 />
    <glyph glyph-name="X" unicode="X" horiz-adv-x="472" 
d="M447 558l-176 -279l174 -280h-41l-163 263h-9l-164 -263h-41l174 280l-176 279h42l164 -261h11l164 261h41z" />
    <glyph glyph-name="W" unicode="W" horiz-adv-x="602" 
d="M537 558h35l-110 -559h-40l-121 211l-120 -211h-41l-110 559h36l101 -513l134 235l135 -235z" />
    <glyph glyph-name="V" unicode="V" horiz-adv-x="452" 
d="M395 558h37l-185 -559h-40l-187 559h37l170 -509z" />
    <glyph glyph-name="N" unicode="N" horiz-adv-x="486" 
d="M401 558h35v-559h-36l-315 498v-498h-35v559h37l314 -496v496z" />
    <glyph glyph-name="K" unicode="K" horiz-adv-x="413" 
d="M253 246v-1l135 -246h-40l-125 229c-12 17 -32 28 -53 28h-85v-257h-35v559h35v-267h44l180 267h43l-181 -267c32 0 63 -17 81 -45h1z" />
    <glyph glyph-name="R" unicode="R" horiz-adv-x="434" 
d="M85 -1h-35v559h157c88 0 160 -71 160 -159c0 -74 -51 -137 -120 -155l147 -245h-41l-143 240h-125v-240zM85 523v-249h122c69 0 125 56 125 125s-56 124 -125 124h-122z" />
    <glyph glyph-name="G" unicode="G" horiz-adv-x="472" 
d="M254 3c-40 0 -84 16 -121 43c-38 29 -63 66 -71 104c-16 73 -16 193 0 266c8 39 34 76 73 103c39 26 86 41 134 41c8 0 90 3 134 -19l-15 -31c-31 15 -95 16 -117 15h-1c-41 0 -82 -13 -115 -35c-31 -22 -52 -51 -59 -81c-15 -69 -15 -182 0 -252c6 -29 28 -59 58 -82
c31 -23 67 -37 100 -37c73 0 103 9 133 21v155h-145v35h180v-214l-11 -5c-37 -14 -68 -27 -157 -27z" />
    <glyph glyph-name="E" unicode="E" horiz-adv-x="370" 
d="M256 297v-35h-171v-225h235v-35h-270v557h270v-35h-235v-227h171z" />
    <glyph glyph-name="A" unicode="A" horiz-adv-x="420" 
d="M190 558h39l186 -559h-37l-62 188h-212l-62 -188h-37zM116 222h188l-95 284z" />
    <glyph glyph-name="M" unicode="M" horiz-adv-x="526" 
d="M436 558h40v-559h-35v502l-178 -280l-178 280v-502h-35v559h40l173 -271z" />
    <glyph glyph-name="U" unicode="U" horiz-adv-x="476" 
d="M242 0h-8c-44 0 -88 16 -123 43c-39 32 -61 76 -61 124v395h35v-395c0 -86 87 -132 149 -132h8c63 0 149 46 149 132v394h35v-394c0 -48 -22 -92 -61 -124c-34 -27 -79 -43 -123 -43z" />
    <glyph glyph-name="Z" unicode="Z" horiz-adv-x="454" 
d="M51 2v20l302 501h-303v35h353v-20l-302 -501h303v-35h-353z" />
    <glyph glyph-name="Y" unicode="Y" horiz-adv-x="410" 
d="M363 558h42l-182 -276v-284h-35v284l-183 276h42l158 -239z" />
    <glyph glyph-name="S" unicode="S" horiz-adv-x="425" 
d="M213 -4c-49 0 -90 14 -120 42c-31 28 -40 62 -43 75l34 7c3 -15 24 -89 129 -89c55 0 87 26 105 47c27 34 29 88 4 119c-14 16 -67 53 -113 86c-64 44 -103 72 -116 90c-39 52 -21 113 14 150c32 34 68 40 115 40c33 0 65 -11 92 -32s45 -49 51 -79l-34 -7
c-9 45 -59 83 -109 83c-47 0 -69 -7 -90 -29c-5 -5 -49 -54 -11 -105c11 -14 62 -51 108 -83c53 -37 103 -72 120 -92c17 -21 26 -50 25 -81c0 -30 -11 -60 -29 -82c-23 -27 -64 -60 -132 -60z" />
    <glyph glyph-name="B" unicode="B" horiz-adv-x="423" 
d="M257 2h-207v558h155c55 0 96 -52 104 -89c10 -43 10 -77 0 -120c-4 -18 -15 -39 -32 -56c18 -4 35 -13 50 -25c20 -17 33 -37 37 -58c11 -47 11 -78 0 -125c-4 -20 -17 -41 -36 -58c-21 -17 -46 -27 -71 -27zM257 262h-172v-225h172c37 0 68 34 73 58c9 41 9 68 0 110
c-5 23 -36 57 -73 57zM85 297h120c34 0 65 37 70 61c9 39 9 67 0 106c-5 24 -36 61 -70 61h-120v-228z" />
    <glyph glyph-name="F" unicode="F" horiz-adv-x="315" 
d="M246 297v-35h-161v-263h-35v560h260v-35h-225v-227h161z" />
    <glyph glyph-name="H" unicode="H" horiz-adv-x="470" 
d="M420 562v-562h-35v263h-300v-263h-35v562h35v-264h300v264h35z" />
    <glyph glyph-name="C" unicode="C" horiz-adv-x="444" 
d="M266 3h-19c-42 0 -84 14 -119 41c-35 28 -58 64 -66 103c-15 73 -15 193 0 267c8 39 31 75 66 102s77 42 119 42h19c51 0 105 -23 142 -63l-26 -24c-30 33 -74 52 -116 52h-19c-69 0 -138 -53 -151 -116c-14 -70 -14 -184 0 -253c13 -63 82 -116 151 -116h19
c43 0 87 20 117 53l26 -24c-37 -40 -91 -64 -143 -64z" />
    <glyph glyph-name="D" unicode="D" horiz-adv-x="445" 
d="M198 2h-148v556h148c42 0 84 -15 119 -42s59 -64 66 -102c15 -74 15 -194 0 -268c-15 -80 -98 -144 -185 -144zM85 523v-486h113c69 0 139 53 151 116c14 70 14 184 0 254c-12 63 -81 116 -151 116h-113z" />
    <glyph glyph-name="P" unicode="P" horiz-adv-x="391" 
d="M85 239v-243h-35v562h157c88 0 159 -71 159 -159s-71 -160 -159 -160h-122zM85 523v-249h122c68 0 124 56 124 125s-56 124 -124 124h-122z" />
    <glyph glyph-name="Q" unicode="Q" horiz-adv-x="523" 
d="M417 -48v-35c-48 0 -72 25 -93 47c-20 20 -35 36 -69 36v2h-8c-42 0 -84 15 -119 42c-36 27 -59 64 -67 103c-14 73 -14 194 0 267c8 39 31 76 67 103c35 27 77 42 119 42h28c42 0 85 -15 120 -42s58 -64 66 -103c15 -73 15 -194 0 -267c-8 -39 -31 -76 -66 -103
c-21 -16 -44 -28 -69 -35c9 -7 16 -14 23 -21c20 -20 35 -36 68 -36zM275 524h-28c-70 0 -139 -53 -152 -116c-13 -70 -13 -185 0 -255c13 -63 82 -116 152 -116h28c70 0 139 53 152 116c14 70 14 185 0 255c-13 63 -82 116 -152 116z" />
    <glyph glyph-name="O" unicode="O" horiz-adv-x="523" 
d="M275 2h-28c-42 0 -84 15 -119 42c-36 27 -59 64 -67 103c-14 73 -14 194 0 267c8 39 31 76 67 103c35 27 77 42 119 42h28c42 0 85 -15 120 -42s58 -64 66 -103c15 -73 15 -194 0 -267c-8 -39 -31 -76 -66 -103s-78 -42 -120 -42zM275 524h-28c-70 0 -139 -53 -152 -116
c-13 -70 -13 -185 0 -255c13 -63 82 -116 152 -116h28c70 0 139 53 152 116c14 70 14 185 0 255c-13 63 -82 116 -152 116z" />
    <glyph glyph-name="L" unicode="L" horiz-adv-x="353" 
d="M348 38v-35h-298v558h35v-523h263z" />
    <glyph glyph-name="T" unicode="T" horiz-adv-x="384" 
d="M210 523v-526h-35v526h-170v35h374v-35h-169z" />
    <glyph glyph-name="I" unicode="I" horiz-adv-x="185" 
d="M110 561v-562h-35v562h35z" />
    <glyph glyph-name="J" unicode="J" horiz-adv-x="250" 
d="M154 -27l-54 -54l-25 25l54 54c11 12 11 15 11 21v542h35v-542c0 -17 -5 -30 -21 -46z" />
    <glyph glyph-name="two" unicode="2" horiz-adv-x="385" 
d="M327 35v-35h-277v133c0 27 10 54 28 77c18 24 42 40 68 47c1 0 129 35 148 107c8 33 8 85 0 118c-7 27 -51 51 -94 51h-19c-42 0 -86 -24 -93 -51l-34 9c11 43 67 77 127 77h19c60 0 116 -34 127 -77c10 -38 10 -98 0 -136c-24 -92 -166 -130 -172 -132
c-38 -10 -70 -51 -70 -90v-98h242z" />
    <glyph glyph-name="seven" unicode="7" horiz-adv-x="355" 
d="M340 565v-29l-95 -116c-46 -57 -85 -167 -85 -241v-176h-35v176c0 82 42 200 93 263l72 88h-275v35h325z" />
    <glyph glyph-name="eight" unicode="8" 
d="M213 -1h-20c-30 0 -60 9 -85 24c-26 16 -44 38 -50 62c-10 42 -10 111 0 153c6 24 24 45 50 62c4 3 9 5 14 8c-23 14 -38 33 -43 53c-9 36 -9 93 0 130c5 20 20 39 43 53c21 13 47 20 72 20h17c25 0 51 -7 72 -20c23 -14 38 -33 43 -53c9 -37 9 -94 0 -130
c-5 -20 -20 -39 -43 -53c5 -3 9 -6 14 -8c26 -17 44 -38 50 -62c10 -42 10 -111 0 -153c-6 -24 -24 -46 -50 -62c-25 -15 -55 -24 -84 -24zM225 287h-45c-19 -2 -38 -7 -54 -17c-18 -11 -30 -26 -34 -41c-9 -37 -9 -99 0 -136c4 -14 16 -29 34 -40c20 -12 44 -19 67 -19h20
c23 0 46 7 66 19c18 11 30 26 34 40c9 37 9 99 0 136c-4 15 -16 30 -34 41c-17 10 -35 16 -54 17zM211 529h-17c-37 0 -75 -22 -81 -47c-7 -30 -7 -82 0 -112c5 -23 36 -43 68 -47h43c32 4 62 24 68 47c8 30 8 82 0 112c-6 25 -44 47 -81 47z" />
    <glyph glyph-name="five" unicode="5" horiz-adv-x="392" 
d="M202 0h-20c-29 0 -59 8 -83 23c-26 16 -43 38 -49 61l34 8c3 -14 16 -28 33 -39c19 -12 42 -18 65 -18h20c22 0 45 6 65 18c17 11 29 25 33 39c9 37 9 98 0 134c-4 14 -16 28 -33 39c-20 12 -43 19 -65 19h-20l-115 -1l29 281h215v-35h-183l-22 -211l76 1h20
c29 0 58 -9 83 -24c26 -16 43 -37 49 -61c10 -41 10 -109 0 -150c-6 -23 -23 -45 -49 -61c-25 -15 -54 -23 -83 -23z" />
    <glyph glyph-name="one" unicode="1" horiz-adv-x="225" 
d="M175 571v-570h-35v520l-114 -39l-11 33z" />
    <glyph glyph-name="six" unicode="6" horiz-adv-x="392" 
d="M205 -1h-19c-28 0 -57 8 -81 23c-25 15 -42 36 -47 59c-6 22 -8 52 -8 81v226c0 35 13 69 37 98c23 30 54 49 88 57l121 26l7 -35l-121 -26c-52 -11 -97 -66 -97 -120v-117c6 5 12 10 20 15c24 15 53 23 81 23h19c29 0 57 -8 81 -23c25 -15 42 -36 48 -59
c10 -41 10 -105 0 -146c-6 -23 -23 -44 -48 -59c-24 -15 -52 -23 -81 -23zM205 274h-19c-22 0 -44 -6 -62 -17c-17 -11 -29 -25 -32 -38c-9 -35 -9 -94 0 -129c3 -14 15 -28 32 -38c18 -12 40 -18 62 -18h19c22 0 44 6 63 18c17 10 28 24 32 38c8 35 8 94 0 129
c-4 13 -15 27 -32 38c-19 11 -41 17 -63 17z" />
    <glyph glyph-name="four" unicode="4" horiz-adv-x="377" 
d="M260 173v-170h-35v170h-175l23 390l35 -2l-21 -353h138v179h35v-179h67v-35h-67z" />
    <glyph glyph-name="nine" unicode="9" horiz-adv-x="392" 
d="M217 18l-122 -25l-7 34l121 26c53 11 97 66 97 120v116c-6 -5 -13 -10 -20 -14c-24 -15 -52 -23 -81 -23h-19c-28 0 -57 8 -81 23c-25 15 -42 36 -47 59c-10 41 -10 105 0 146c5 23 22 44 47 59c24 15 53 23 81 23h19c29 0 57 -8 81 -23c25 -15 42 -36 48 -59
c6 -27 9 -63 7 -97v-210c0 -34 -13 -69 -36 -98c-24 -29 -55 -49 -88 -57zM205 527h-19c-22 0 -44 -6 -62 -18c-17 -10 -29 -24 -32 -37c-9 -35 -9 -95 0 -130c3 -13 15 -27 32 -37c18 -12 40 -18 62 -18h19c22 0 44 6 63 18c17 10 28 24 32 37c8 35 8 95 0 130
c-4 13 -15 27 -32 37c-19 12 -41 18 -63 18z" />
    <glyph glyph-name="zero" unicode="0" horiz-adv-x="435" 
d="M238 -1h-40c-35 0 -66 11 -90 30c-27 23 -44 57 -49 100c-11 84 -11 221 0 305c5 43 22 76 49 99c24 20 55 30 90 30h40c34 0 65 -10 89 -30c28 -23 44 -56 50 -99c10 -84 10 -221 0 -305c-6 -43 -22 -77 -50 -100c-24 -19 -55 -30 -89 -30zM238 528h-40
c-28 0 -93 -9 -104 -99c-11 -81 -11 -214 0 -296c11 -89 76 -99 104 -99h40c27 0 93 10 104 99c10 82 10 215 0 296c-11 90 -77 99 -104 99z" />
    <glyph glyph-name="three" unicode="3" horiz-adv-x="398" 
d="M205 1h-20c-30 0 -60 8 -85 24c-27 16 -44 38 -50 62l34 8c3 -15 16 -29 34 -41c20 -12 43 -18 67 -18h20c23 0 47 6 66 18s31 26 35 41c9 37 9 100 0 137c-4 15 -16 29 -35 41s-43 18 -66 18h-20v35h2v1h17c36 0 73 21 79 46c7 30 7 80 0 110c-6 25 -43 46 -79 46h-17
c-36 0 -73 -21 -79 -46l-34 9c10 40 60 72 113 72h17c53 0 103 -32 113 -72c9 -36 9 -92 0 -128c-6 -21 -22 -40 -44 -53c6 -3 11 -6 17 -9c26 -16 44 -38 50 -62c10 -42 10 -111 0 -153c-6 -24 -24 -46 -50 -62c-25 -16 -55 -24 -85 -24z" />
    <glyph glyph-name="exclam" unicode="!" horiz-adv-x="135" 
d="M85 562v-431h-35v431h35zM85 62v-62h-35v62h35z" />
    <glyph glyph-name="period" unicode="." horiz-adv-x="138" 
d="M88 62v-62h-38v62h38z" />
    <glyph glyph-name="comma" unicode="," horiz-adv-x="138" 
d="M88 62v-89h-18v19l-20 18v52h38z" />
    <glyph glyph-name="underscore" unicode="_" horiz-adv-x="471" 
d="M421 15v-35h-371v35h371z" />
    <glyph glyph-name="bar" unicode="|" horiz-adv-x="135" 
d="M85 543v-522h-35v522h35z" />
    <glyph glyph-name="bracketleft" unicode="[" horiz-adv-x="203" 
d="M153 18l-4 -35l-56 7c-24 3 -43 24 -43 49v486c0 24 19 46 43 49l56 7l4 -35l-56 -7c-6 -1 -12 -8 -12 -14v-486c0 -7 6 -13 12 -14z" />
    <glyph glyph-name="bracketright" unicode="]" horiz-adv-x="203" 
d="M54 -17l-4 35l56 7c6 1 12 7 12 14v486c0 6 -6 13 -12 14l-56 7l4 35l56 -7c24 -3 43 -25 43 -49v-486c0 -25 -19 -46 -43 -49z" />
    <glyph glyph-name="backslash" unicode="\" horiz-adv-x="283" 
d="M198 0v26c0 9 -10 52 -26 101l-94 285c-14 41 -28 96 -28 119v32h35v-32c0 -14 11 -62 26 -108l95 -285c13 -41 27 -94 27 -112v-26h-35z" />
    <glyph glyph-name="slash" unicode="/" horiz-adv-x="283" 
d="M85 26v-26h-35v26c0 18 14 71 27 112l95 285c15 46 26 94 26 108v32h35v-32c0 -23 -14 -78 -28 -119l-94 -285c-16 -49 -26 -92 -26 -101z" />
    <glyph glyph-name="parenleft" unicode="(" horiz-adv-x="174" 
d="M124 3l-34 -7l-28 141c-15 80 -15 209 0 289l28 141l34 -7l-27 -141c-15 -76 -15 -199 0 -275z" />
    <glyph glyph-name="parenright" unicode=")" horiz-adv-x="174" 
d="M84 -4l-34 7l27 141c15 76 15 199 0 275l-27 141l34 7l28 -141c15 -80 15 -209 0 -289z" />
    <glyph glyph-name="braceleft" unicode="{" horiz-adv-x="247" 
d="M197 17l-5 -34l-33 4c-24 4 -43 25 -43 50v216c0 6 -5 11 -11 11h-55v35h58c1 0 3 1 5 3s3 5 3 8v217c0 24 19 46 44 49l32 5l5 -35l-33 -4c-7 -1 -13 -8 -13 -15v-217c0 -11 -3 -21 -10 -29c6 -8 10 -17 10 -28v-216c0 -7 6 -14 13 -15z" />
    <glyph glyph-name="braceright" unicode="}" horiz-adv-x="247" 
d="M55 -17l-5 34l33 5c7 1 13 8 13 15v216c0 11 3 20 9 28c-6 8 -9 18 -9 29v217c0 7 -6 14 -13 15l-33 4l5 35l32 -5c25 -3 44 -25 44 -49v-217c0 -3 1 -6 3 -8s5 -3 7 -3h56v-35h-57c-5 -1 -9 -6 -9 -11v-216c0 -25 -19 -46 -43 -50z" />
    <glyph glyph-name="question" unicode="?" horiz-adv-x="365" 
d="M200 290v-157h-40v178l9 6c36 25 90 63 100 77c37 50 -6 97 -11 102c-20 22 -42 29 -88 29c-49 0 -97 -37 -106 -81l-39 7c6 31 24 60 52 81c27 21 60 33 93 33c48 0 85 -7 117 -41c36 -38 55 -100 14 -154c-12 -16 -49 -43 -101 -80zM200 65v-64h-40v64h40z" />
    <glyph glyph-name="numbersign" unicode="#" horiz-adv-x="361" 
d="M311 233v-35h-47v-67h-35v67h-97v-67h-35v67h-47v35h47v97h-47v35h47v67h35v-67h97v67h35v-67h47v-35h-47v-97h47zM132 330v-97h97v97h-97z" />
    <glyph glyph-name="equal" unicode="=" horiz-adv-x="361" 
d="M311 366v-35h-261v35h261zM311 234v-35h-261v35h261z" />
    <glyph glyph-name="less" unicode="&#x3c;" horiz-adv-x="237" 
d="M187 139l-29 -20l-92 130c-6 7 -10 12 -12 15h-4v35h3c3 3 8 8 13 16l92 130l29 -20l-92 -130c-4 -6 -7 -10 -10 -14l9 -12z" />
    <glyph glyph-name="greater" unicode="&#x3e;" horiz-adv-x="237" 
d="M79 119l-29 20l93 130c2 4 5 8 9 12c-3 4 -6 8 -10 14l-92 130l29 20l92 -130c5 -8 10 -13 13 -16h3v-35h-4c-3 -3 -7 -8 -12 -15z" />
    <glyph glyph-name="asciitilde" unicode="~" horiz-adv-x="359" 
d="M242 246c-23 0 -51 8 -73 22c-24 16 -56 21 -69 15l-35 -16l-15 31l35 17c26 12 70 4 103 -17c24 -16 57 -21 70 -15l36 17l15 -31l-36 -17c-9 -4 -19 -6 -31 -6z" />
    <glyph glyph-name="asterisk" unicode="*" horiz-adv-x="289" 
d="M222 507l-21 -21l-41 41v-58h-30v58l-41 -41l-21 21l41 41h-59v30h59l-42 42l21 21l42 -42v59h30v-59l42 42l21 -21l-42 -42h58v-30h-58z" />
    <glyph glyph-name="asciicircum" unicode="^" horiz-adv-x="315" 
d="M239 532l26 23l-76 87c-7 8 -12 15 -14 18v1h-35v-1c-2 -3 -7 -10 -14 -18l-76 -87l26 -23l76 87c2 2 4 4 5 6l6 -6zM141 662c0 0 0 -1 -1 -1z" />
    <glyph glyph-name="grave" unicode="`" horiz-adv-x="227" 
d="M169 585l-119 30l8 34l119 -30z" />
    <glyph glyph-name="colon" unicode=":" horiz-adv-x="138" 
d="M88 62v-62h-38v62h38zM88 302v-62h-38v62h38z" />
    <glyph glyph-name="semicolon" unicode=";" horiz-adv-x="138" 
d="M88 302v-62h-38v62h38zM88 62v-89h-18v19l-20 18v52h38z" />
    <glyph glyph-name="hyphen" unicode="-" horiz-adv-x="278" 
d="M228 300v-35h-178v35h178z" />
    <glyph glyph-name="plus" unicode="+" horiz-adv-x="278" 
d="M121 401h35v-101h102v-35h-102v-102h-35v102h-101v35h101v101z" />
    <glyph glyph-name="ampersand" unicode="&#x26;" horiz-adv-x="424" 
d="M374 0h-35c0 25 -7 51 -19 77c-8 -20 -21 -37 -40 -51c-23 -19 -52 -29 -80 -29h-18c-28 0 -57 10 -81 29c-23 18 -39 43 -45 69c-12 59 -4 109 25 155c16 25 36 45 57 64c-44 58 -74 114 -62 170v1c4 21 17 41 36 55c19 15 42 23 64 23h15c22 0 45 -8 64 -23
s32 -34 36 -56c16 -77 -40 -122 -94 -166c-4 -3 -7 -6 -10 -8c13 -16 27 -32 41 -48c27 -32 55 -64 79 -97c14 54 32 117 33 121l33 -10c0 -1 -26 -93 -40 -150c25 -41 41 -83 41 -126zM91 102c7 -38 49 -70 91 -70h18c42 0 84 32 91 70c1 5 3 11 4 18
c-26 40 -60 80 -94 119c-14 16 -28 32 -41 48c-49 -44 -88 -96 -69 -185zM257 477c-6 28 -36 51 -66 51h-15c-30 0 -60 -24 -66 -51c-9 -42 17 -90 55 -140c3 3 6 5 10 8c58 47 92 79 82 132z" />
    <glyph glyph-name="dollar" unicode="$" horiz-adv-x="425" 
d="M240 -2v-68h-36v66c-45 2 -83 15 -111 42c-31 28 -40 62 -43 75l34 7c3 -15 23 -85 120 -89v255c-61 42 -99 69 -111 87c-39 52 -21 113 14 150c28 29 58 38 97 40v70h36v-71c26 -4 52 -14 74 -31c27 -21 45 -49 51 -79l-34 -7c-8 39 -48 74 -91 81v-223
c49 -34 93 -66 109 -84c17 -21 26 -50 25 -81c0 -30 -11 -60 -29 -82c-20 -23 -53 -51 -105 -58zM318 78c27 34 29 88 4 119c-11 12 -46 38 -82 64v-228c39 6 63 27 78 45zM132 499c-5 -5 -49 -54 -11 -105c9 -12 45 -39 83 -66v199c-35 -2 -54 -9 -72 -28z" />
    <glyph glyph-name="quotesingle" unicode="'" horiz-adv-x="135" 
d="M50 643h35v-136h-35v136z" />
    <glyph glyph-name="quotedbl" unicode="&#x22;" horiz-adv-x="215" 
d="M50 642h35v-134h-35v134zM130 642h35v-134h-35v134z" />
    <glyph glyph-name="at" unicode="@" horiz-adv-x="671" 
d="M604 374c15 -85 20 -168 13 -246c-6 -61 -17 -102 -23 -117c-3 -7 -10 -18 -30 -22c-7 -2 -15 -3 -24 -3c-25 0 -54 7 -65 17c-2 1 -3 3 -5 4c-13 12 -26 23 -33 37c-5 -5 -10 -10 -16 -15c-24 -19 -54 -29 -83 -29h-19c-29 0 -58 10 -82 29c-25 19 -41 45 -47 72
c-9 49 -9 130 0 180c6 27 22 52 47 71c24 19 53 29 82 29h19c29 0 59 -10 83 -29c4 -3 8 -6 11 -10v44h35v-322c0 -8 13 -19 26 -31c2 -1 3 -3 5 -4c3 -2 16 -6 33 -7c18 -2 28 1 31 3c4 11 15 48 20 106c7 75 2 155 -13 237c-18 91 -114 165 -215 165h-39
c-101 0 -197 -74 -215 -165c-20 -98 -20 -256 0 -354c18 -91 114 -166 215 -166h39c40 0 81 12 117 35l19 -30c-43 -26 -89 -40 -136 -40h-39c-117 0 -229 88 -250 195c-20 101 -20 265 0 366c21 107 133 194 250 194h39c117 0 229 -87 250 -194zM338 35c43 0 86 33 94 71
v169c-8 39 -51 71 -94 71h-19c-43 0 -86 -33 -94 -72c-9 -45 -9 -121 0 -166c8 -40 51 -73 94 -73h19z" />
    <glyph glyph-name="percent" horiz-adv-x="575" 
d="M442 0h-20c-34 0 -72 19 -79 73c-5 43 -5 114 0 157c7 54 45 73 79 73h20c34 0 72 -19 79 -73c5 -44 5 -114 0 -157c-7 -54 -45 -73 -79 -73zM153 263h-20c-34 0 -72 19 -79 73c-5 43 -5 113 0 157c7 54 45 73 79 73h20c34 0 72 -19 79 -73c5 -44 5 -114 0 -157
c-7 -54 -45 -73 -79 -73zM153 531h-20c-18 0 -40 -8 -44 -43c-5 -40 -5 -108 0 -148c4 -35 26 -42 44 -42h20c18 0 40 7 44 42c5 40 5 108 0 148c-4 35 -26 43 -44 43zM442 268h-20c-18 0 -40 -8 -44 -43c-5 -40 -5 -107 0 -148c4 -35 26 -42 44 -42h20c18 0 40 7 44 42
c5 41 5 108 0 148c-4 35 -26 43 -44 43zM225 26v-26h-35v26c0 19 15 72 28 112l95 285c15 46 26 94 26 108v33h35v-33c0 -22 -14 -78 -28 -119l-95 -285c-16 -48 -26 -91 -26 -101z" />
    <glyph glyph-name="germandbls" unicode="&#xdf;" horiz-adv-x="389" 
d="M84 443v-443h-35v443c0 35 11 65 31 86c19 22 44 32 74 32h15h16c54 0 97 -53 105 -89c9 -45 9 -78 0 -121c-4 -19 -17 -41 -35 -58c15 -5 29 -12 42 -23c19 -16 32 -36 37 -58c10 -46 10 -77 0 -125c-5 -20 -18 -41 -37 -56c-20 -20 -45 -30 -71 -30h-60v37h60
c38 0 68 34 73 57c9 42 9 69 0 109c-5 23 -35 58 -73 58h-37h-4h-16v35h16c33 0 65 38 70 62c9 38 9 66 0 105c-5 24 -37 60 -70 60h-31c-36 0 -70 -25 -70 -81z" />
    <glyph glyph-name="_0250" horiz-adv-x="425" 
d="M85 378v-375h-35v375c0 38 4 69 13 94s23 45 41 59c38 30 89 34 135 34h80v-95l-69 -170c26 -2 51 -9 69 -19c2 -1 56 -34 56 -131c0 -92 -52 -123 -60 -127c-23 -14 -54 -22 -85 -23h-2c-32 0 -62 8 -84 22l18 30c36 -22 98 -22 135 1h1l1 1c3 1 41 23 41 96
c0 74 -35 99 -39 101c-18 10 -48 16 -76 15c-35 0 -89 -1 -90 -1v35s44 1 78 1l71 176v53h-45c-56 0 -90 -8 -113 -26c-28 -22 -41 -63 -41 -126z" />
    <glyph glyph-name="_0249" horiz-adv-x="476" 
d="M183 322v-35h-13c-28 0 -50 -12 -65 -35c-15 -26 -24 -59 -24 -98c0 -70 49 -117 118 -117c67 0 116 47 116 117v133h-97v35h212v-35h-80v-133c0 -46 -15 -84 -44 -112s-66 -42 -107 -42c-43 0 -80 14 -107 42c-31 28 -46 66 -46 112c0 79 28 134 74 157
c-6 6 -12 14 -16 23c-15 24 -24 56 -24 96c0 39 15 72 40 95c23 24 55 37 92 37c35 0 66 -13 92 -37c24 -23 37 -56 37 -95h-35c0 56 -40 95 -94 95c-57 0 -95 -39 -95 -95c0 -48 12 -108 66 -108z" />
    <glyph glyph-name="dieresis" unicode="&#xa8;" horiz-adv-x="252" 
d="M85 517v-59h-35v59h35zM202 517v-59h-35v59h35z" />
    <glyph glyph-name="adieresis" unicode="&#xe4;" horiz-adv-x="380" 
d="M166 6h-23c-28 0 -53 11 -73 30c-19 19 -30 45 -29 72v34c0 57 46 103 103 103h27c25 0 49 -4 68 -11c5 -2 9 -4 14 -7v31c0 28 -10 52 -28 67c-15 12 -33 18 -53 15l-100 -14l-5 34l100 15c30 4 59 -4 81 -24c25 -22 40 -55 40 -93v-185c0 -9 23 -25 42 -37l-19 -29
c-17 10 -33 20 -43 31c-20 -21 -63 -32 -102 -32zM171 210h-27c-38 0 -68 -31 -68 -68v-34c-1 -18 6 -35 19 -47c13 -13 30 -20 48 -20h23c20 0 41 3 57 10c14 5 20 12 21 14l9 33v61l-7 30c-2 6 -29 21 -75 21zM132 517v-59h-35v59h35zM249 517v-59h-35v59h35z" />
    <glyph glyph-name="odieresis" unicode="&#xf6;" horiz-adv-x="384" 
d="M201 4h-18c-28 0 -57 10 -81 28c-23 19 -39 43 -45 70c-9 48 -9 127 0 175c6 26 22 51 45 70c24 18 53 28 81 28h18c29 0 57 -10 81 -28c24 -19 40 -44 45 -70c9 -48 9 -127 0 -175c-5 -27 -21 -51 -45 -70c-24 -18 -52 -28 -81 -28zM201 340h-18c-42 0 -84 -32 -91 -70
c-9 -44 -9 -118 0 -161c7 -38 49 -70 91 -70h18c42 0 84 32 92 70c8 43 8 117 0 161c-8 38 -50 70 -92 70zM147 517v-59h-35v59h35zM264 517v-59h-35v59h35z" />
    <glyph glyph-name="udieresis" unicode="&#xfc;" horiz-adv-x="351" 
d="M178 4h-6c-29 0 -58 11 -81 29c-27 21 -41 51 -41 84v260h35v-260c0 -51 51 -78 87 -78h6c37 0 88 27 88 78v260h35v-260c0 -33 -15 -63 -41 -84c-23 -18 -53 -29 -82 -29zM134 517v-59h-35v59h35zM251 517v-59h-35v59h35z" />
    <glyph glyph-name="x" unicode="x" horiz-adv-x="410" 
d="M360 380l-122 -194l114 -184h-41l-103 167h-5l-104 -167h-41l114 184l-122 194h42l110 -176h6l111 176h41z" />
    </font>
</defs>
</svg>
